<svg viewBox="0 0 776 121.94" xmlns="http://www.w3.org/2000/svg"><path d="m56.72 74.41v-31.22a12.13 12.13 0 0 1 -8.32 4.58c-3.67.54-7.23 1.06-10.66 1.52a17.68 17.68 0 0 0 -10.74 7.51q-4.68 7.05-4.68 19.72-.05 13.62 2.68 18.48a9.12 9.12 0 0 0 8.56 4.81q8.9 0 16-7.39a24.87 24.87 0 0 0 7.15-18m.7-42.25v-13.63c0-6.25-1-10.48-3-12.66s-6.29-3.3-12.89-3.3a30.64 30.64 0 0 0 -14.11 3.11c-4.06 2.07-6.71 4.84-8 8.34a10.3 10.3 0 0 1 2.35-.23 8.9 8.9 0 0 1 7.26 3.5 12.35 12.35 0 0 1 2.82 7.94 10.94 10.94 0 0 1 -3.55 8.41 11.81 11.81 0 0 1 -8.28 3.27 9.32 9.32 0 0 1 -5.45-1.63q-6.83-4.44-6.83-11.21a24.23 24.23 0 0 1 1.41-7.48q3.29-9.11 16.41-13.32a61.29 61.29 0 0 1 19-3q17.36 0 26.25 6.52 8 5.84 8 14.68v51.52q0 14 .71 17.25 1.64 7.92 8.43 7.93 6.1 0 8.21-6.28t2.11-18.11c0-2.16 0-4.33-.12-6.5s-.14-4.47-.14-6.78v-2.09h2.82v10.27c0 3.27.07 6.39.23 9.34q0 13.56-3.3 18.22-4.25 5.85-17.2 5.85-10.14 0-15.09-3.48-5.88-4.17-7.77-14.12-4.95 11.34-14.8 15.28-5.85 2.31-15.7 2.32a30.88 30.88 0 0 1 -17.11-4.69q-10.08-6.3-10.08-19.17a27.33 27.33 0 0 1 9.8-21.24 40.68 40.68 0 0 1 23.81-9.58q14-1.18 18.91-3.75t4.9-11.46" fill="#da1a32"/><path d="m142.29 86.64v-2l-5-.36zm-3.11-47.43-7.29 9.54-7.65-6.75q3.58 6.67 6 17.76a96.91 96.91 0 0 1 2.51 18.59l1.43-.12v-14.71q.12-4.05.46-7.15.23-1.78 4.56-17.16m-6.2 55.18-9.81-6.08v2.74l8.73 3.34zm7.77-1.31-17.61-8.08v1.78l14.23 7.15c.8-.15 1.91-.43 3.35-.83m1.55-2v-2.91q-9-3.09-19.13-5.72v1zm13.64-57.68a28.55 28.55 0 0 0 -6.46-18.47q-6.94-8.34-17.22-8.34a21.15 21.15 0 0 0 -17.1 8.16 28.58 28.58 0 0 0 -6.7 18.65q0 7.52 7.42 20.38 8.13 14.31 9.45 22.64l4.3 1.56a123.46 123.46 0 0 0 -4.43-24.08 168.56 168.56 0 0 0 -7.77-23l14 13.35 12.67-18.17q-7.43 31.71-6.82 51.25l2.27-1.43q1.32-9.18 9.21-22.64 7.19-12.28 7.18-19.91m6.57 0q0 10.85-7.29 21.69-6.83 10.26-8.73 19-1 5.13-1.43 20.74a36.67 36.67 0 0 1 -6.34 1.67 1.05 1.05 0 0 0 .12.41 1.38 1.38 0 0 1 .12.42c0 1.91-2 2.86-5.86 2.86a11.18 11.18 0 0 1 -3.71-.72c-1.84-.63-2.55-1.42-2.15-2.38a16.62 16.62 0 0 1 -7.42-2.26q-.48-16.09-1.43-20.74-1.8-8.82-9.15-18.83a36.06 36.06 0 0 1 -7.35-21.81 34.7 34.7 0 0 1 8.37-23.12q8.85-10.3 22-10.3t21.88 10.25a34.7 34.7 0 0 1 8.37 23.12" fill="#da1a32"/><g fill="#231f20"><path d="m209.57 33a5.89 5.89 0 0 0 -5.74 3.88q-1.71 3.89-1.71 13.05 0 9.76 1.61 13.45a5.85 5.85 0 0 0 5.84 3.62q4 0 5.74-4t1.78-13.11q0-8.84-1.82-12.92t-5.7-4m-15.24 72.93q0 3.68 4.76 5.49t14.3 1.8c6.36 0 11.12-.66 14.27-2s4.73-3.36 4.73-6.09a3.39 3.39 0 0 0 -2.45-3.44c-1.63-.6-4.69-.9-9.16-.9h-13.5a43.56 43.56 0 0 1 -6-.4 8 8 0 0 0 -5 1.67 4.81 4.81 0 0 0 -2 3.88m1.34-27.23a4.1 4.1 0 0 0 2.42 4.11q2.41 1.11 9.13 1.11h13.49q11.82 0 17.69 4.55t5.88 13.72c0 6.59-2.58 11.55-7.72 14.84s-12.9 5-23.23 5-18.09-1.13-23.26-3.38-7.76-5.65-7.76-10.2a9 9 0 0 1 2.85-6.8 14.84 14.84 0 0 1 8.16-3.51 23.79 23.79 0 0 1 -3.16-1.81q-6.49-4.47-6.51-11.77a14.08 14.08 0 0 1 2.62-8 13.36 13.36 0 0 1 6.45-5.25l-1.35-1.13q-5.7-5.76-5.7-18.27 0-13.38 6.21-20.61t17.74-7.28q9.47 0 15.3 4.48a13.8 13.8 0 0 1 1.88-3.68q3.9-5.49 11.28-5.49a10.86 10.86 0 0 1 8.53 3.45q3.09 3.45 3.09 9.53 0 4.68-2 7.13a7.2 7.2 0 0 1 -5.91 2.44 6.49 6.49 0 0 1 -5-1.84 7.57 7.57 0 0 1 -1.74-5.36c0-2.34.53-4 1.58-5.08s2.77-1.58 5.14-1.58h.07a4.84 4.84 0 0 0 -3.79-1.74 6.1 6.1 0 0 0 -5.64 3.35 10.32 10.32 0 0 0 -1.18 5.39 12 12 0 0 0 .31 2 23.36 23.36 0 0 0 .77 2.84 32.64 32.64 0 0 1 1.27 9.9q0 13.59-5.73 19.84t-18.23 6.26a35.7 35.7 0 0 1 -9.94-1.14 5.49 5.49 0 0 0 -2.82 1.47 3.46 3.46 0 0 0 -1.14 2.48"/><path d="m282 54.23q-.13-10.9-1.41-14.79-1.49-4.48-6-4.48t-5.91 5.42q-1.08 3.94-1.41 13.85zm-6 45.83q-13.31 0-19.94-9.57t-6.72-28.77q0-18.12 7-27.93t19.7-9.8q11.61 0 17.65 8.56t6 25v6.56h-32.5q.19 14.06 2.35 19.47 2.28 5.76 8.73 5.75a8.56 8.56 0 0 0 8.15-4.64q2.52-4.67 1.92-14h11.27q.48 14.78-5.4 22.08t-18.29 7.29"/><path d="m308.08 81.79v-46.09h-7v-9.84q8.25-.93 11.15-4.28 3.35-3.94 3.69-13h9.93v17.28h15.78v9.84h-15.76v45.09a21 21 0 0 0 .74 6.76 2.69 2.69 0 0 0 2.69 1.87 3.23 3.23 0 0 0 3.19-1.71c.56-1.13.83-3.31.83-6.52v-5.08h8.26v5.08q0 10-3.69 14.22t-12.42 4.25q-9.2 0-13.29-4.22t-4.1-13.65"/><path d="m369.72 84v-44a5.18 5.18 0 0 0 -.8-3.37 4 4 0 0 0 -3-.91h-2.55v-9.9h24.17v8.9l1.38-1.72q7.26-9 17.39-9 6.78 0 10.61 4.21t3.82 11.65v44.14a4.88 4.88 0 0 0 .88 3.31 3.91 3.91 0 0 0 3 1h2.62v9.9h-30v-9.9h2.28a3.19 3.19 0 0 0 2.65-1 5.37 5.37 0 0 0 .83-3.31v-39.74a6.52 6.52 0 0 0 -1.57-4.55 5.31 5.31 0 0 0 -4.18-1.71q-5 0-7.49 4.85t-2.25 14.62v26.53a5.61 5.61 0 0 0 .74 3.31 3 3 0 0 0 2.55 1h2.2v9.9h-29.66v-9.9h2.55a3.73 3.73 0 0 0 3-1 4.81 4.81 0 0 0 .87-3.28"/><path d="m464.05 83.64q1.62-5.46 1.61-21.85 0-16.12-1.61-21.48t-6.38-5.31q-4.77 0-6.34 5.35t-1.58 21.48q0 16.4 1.58 21.85t6.34 5.45q4.77 0 6.38-5.45m-26.28 7.22q-6.28-9.19-6.34-29.14.06-19.61 6.34-28.67t19.9-9.09q13.69 0 20.08 9.1t6.25 28.22v.4q.08 19.95-6.27 29.14t-20.05 9.2q-13.62 0-19.9-9.2"/><path d="m494.59 81.79v-46.09h-7v-9.84q8.25-.93 11.14-4.28 3.36-3.94 3.69-13h9.94v17.28h15.78v9.84h-15.76v45.09c0 3.26.24 5.51.74 6.76a2.67 2.67 0 0 0 2.68 1.87 3.21 3.21 0 0 0 3.2-1.71c.56-1.13.84-3.31.84-6.52v-5.08h8.26v5.08q0 10-3.7 14.22t-12.4 4.25q-9.21 0-13.3-4.22t-4.09-13.65"/><path d="m549.68 1.1a10.35 10.35 0 0 1 7.59 3.08 10.18 10.18 0 0 1 3.09 7.5 10.07 10.07 0 0 1 -3.09 7.46 11 11 0 0 1 -15.17 0 10.07 10.07 0 0 1 -3.1-7.46 10.18 10.18 0 0 1 3.09-7.5 10.33 10.33 0 0 1 7.58-3.08m-7.91 82.9v-44a5.18 5.18 0 0 0 -.81-3.37 4 4 0 0 0 -3-.91h-2.55v-9.9h24.17v58.18a4.94 4.94 0 0 0 .87 3.31 3.92 3.92 0 0 0 3 1h2.61v9.9h-30.67v-9.9h2.55a3.75 3.75 0 0 0 3-1 4.81 4.81 0 0 0 .87-3.28"/><path d="m621.07 69.28q.27 15.47-5.6 23.12t-17.89 7.66q-12.69 0-19.34-9.2t-6.64-26.86q0-19.61 7.08-29.81t20.58-10.19q10.07 0 15.94 5.38t5.87 14.56a14.61 14.61 0 0 1 -3.05 9.6 9.69 9.69 0 0 1 -7.82 3.71 10.08 10.08 0 0 1 -7.05-2.38 8.2 8.2 0 0 1 -2.62-6.38 9.17 9.17 0 0 1 2.15-6.39 7.37 7.37 0 0 1 5.78-2.38 6.88 6.88 0 0 1 3.89.94 7.44 7.44 0 0 0 -2.28-3.48q-2.9-2.47-8.11-2.48-6.83 0-9.41 5.86t-2.55 21.3q0 16.53 2.08 22t8.3 5.52a8.34 8.34 0 0 0 7.91-5q2.54-5 2.21-15.12z"/><path d="m661.06 54.23q-.13-10.9-1.42-14.79-1.47-4.48-6-4.48c-2.95 0-4.93 1.81-5.91 5.42q-1.07 3.94-1.41 13.85zm-6 45.83q-13.29 0-19.94-9.57t-6.71-28.77q0-18.12 6.95-27.93t19.64-9.79q11.61 0 17.66 8.56t6 25v6.56h-32.37q.19 14.06 2.34 19.47 2.29 5.76 8.73 5.75a8.58 8.58 0 0 0 8.16-4.64q2.52-4.67 1.91-14h11.28q.46 14.78-5.4 22.08t-18.31 7.28"/><path d="m714.59 36.3c-3.08 0-5.27 1.91-6.54 5.75s-1.91 10.44-1.91 19.81q0 15.24 1.71 20.57t6.68 5.32q4.23 0 6.41-5.26t2.18-15.35v-10.23q0-11.11-1.94-15.86t-6.59-4.75m-6.71 63.76q-9.74 0-14.8-9t-5.08-26.33q0-19.94 5.27-30.34t15.28-10.39q9.06-.07 14 6.55v-13.39a6.65 6.65 0 0 0 -.6-3.38 2.55 2.55 0 0 0 -2.28-.9h-3.49v-9.88h24.17v81a5.07 5.07 0 0 0 .83 3.31 3.7 3.7 0 0 0 2.93 1h2.55v9.9h-24.08v-6.31q-5 8.09-14.7 8.16"/></g><path d="m765.73 77.71a10 10 0 0 1 7.29 3 10.33 10.33 0 0 1 0 14.52 10.28 10.28 0 0 1 -17.56-7.23 10.19 10.19 0 0 1 10.27-10.24" fill="#da1a32"/></svg>